<svg width="30" height="30" viewBox="0 0 30 30" fill="none" xmlns="http://www.w3.org/2000/svg">
<path d="M25.1494 6.85655C24.5629 6.26797 23.8667 5.80107 23.1003 5.48251C22.334 5.16396 21.5126 5 20.6831 5C19.8535 5 19.0321 5.16396 18.2658 5.48251C17.4994 5.80107 16.8032 6.26797 16.2167 6.85655L14.9997 8.07749L13.7826 6.85655C12.5981 5.66822 10.9915 5.00062 9.31633 5.00062C7.64114 5.00062 6.03455 5.66822 4.85001 6.85655C3.66547 8.04489 3 9.65662 3 11.3372C3 13.0177 3.66547 14.6295 4.85001 15.8178L6.06705 17.0387L14.9997 26L23.9323 17.0387L25.1494 15.8178C25.7361 15.2295 26.2015 14.531 26.519 13.7622C26.8366 12.9934 27 12.1694 27 11.3372C27 10.505 26.8366 9.68096 26.519 8.91216C26.2015 8.14336 25.7361 7.44486 25.1494 6.85655Z" stroke="#2F2F2F" stroke-width="1.5" stroke-linecap="round"/>
</svg>
