<svg width="30" height="30" viewBox="0 0 30 30" fill="none" xmlns="http://www.w3.org/2000/svg">
<path d="M24.1494 5.85655C23.5629 5.26797 22.8667 4.80107 22.1003 4.48251C21.334 4.16396 20.5126 4 19.6831 4C18.8535 4 18.0321 4.16396 17.2658 4.48251C16.4994 4.80107 15.8032 5.26797 15.2167 5.85655L13.9997 7.07749L12.7826 5.85655C11.5981 4.66822 9.99152 4.00062 8.31633 4.00062C6.64114 4.00062 5.03455 4.66822 3.85001 5.85655C2.66547 7.04489 2 8.65662 2 10.3372C2 12.0177 2.66547 13.6295 3.85001 14.8178L5.06705 16.0387L13.9997 25L22.9323 16.0387L24.1494 14.8178C24.7361 14.2295 25.2015 13.531 25.519 12.7622C25.8366 11.9934 26 11.1694 26 10.3372C26 9.50499 25.8366 8.68096 25.519 7.91216C25.2015 7.14336 24.7361 6.44486 24.1494 5.85655Z" stroke="#2F2F2F" stroke-width="1.5" stroke-linecap="round" stroke-linejoin="round"/>
</svg>
