<svg width="40" height="40" viewBox="0 0 40 40" fill="none" xmlns="http://www.w3.org/2000/svg">
<rect width="40" height="40" rx="8" fill="white" fill-opacity="0.1"/>
<path d="M24 10C27.3137 10 30 12.6863 30 16V24C30 27.3137 27.3137 30 24 30H16C12.6863 30 10 27.3137 10 24V16C10 12.6863 12.6863 10 16 10H24ZM20 15C17.2386 15 15 17.2386 15 20C15 22.7614 17.2386 25 20 25C22.7614 25 25 22.7614 25 20C25 17.2386 22.7614 15 20 15ZM20 17C21.6569 17 23 18.3431 23 20C23 21.6569 21.6569 23 20 23C18.3431 23 17 21.6569 17 20C17 18.3431 18.3431 17 20 17ZM25 13C24.4477 13 24 13.4477 24 14C24 14.5523 24.4477 15 25 15C25.5523 15 26 14.5523 26 14C26 13.4477 25.5523 13 25 13Z" fill="#F3F2F2"/>
</svg>
