<svg width="40" height="40" viewBox="0 0 40 40" fill="none" xmlns="http://www.w3.org/2000/svg">
<rect width="40" height="40" rx="8.5" fill="white" fill-opacity="0.1"/>
<path d="M20.3912 17.015C20.3922 10.8923 20.3971 10.5398 20.482 10.5174C20.5314 10.5043 21.3096 10.497 22.2115 10.5012L23.8511 10.5087L23.9136 10.9848C24.0527 12.0436 24.4963 12.9407 25.2397 13.667C26.0507 14.4591 27.0797 14.9069 28.319 15.0067L28.473 15.0192L28.4865 16.718L28.5 18.4169L27.8964 18.3866C26.6546 18.3245 25.2017 17.8558 24.1504 17.1781L23.8811 17.0045V20.4157C23.8811 24.1856 23.8631 24.4647 23.5643 25.3365C23.1804 26.4566 22.4063 27.5384 21.4998 28.2215C19.0083 30.0991 15.5375 29.8881 13.3124 27.7237C10.5463 25.0331 11.0095 20.5391 14.2713 18.419C15.2043 17.8127 16.5433 17.4006 17.5832 17.3999L17.7756 17.3997V19.1197V20.8398L17.5063 20.8504C16.2065 20.9015 15.1005 21.9792 15.0169 23.2762C14.9651 24.0811 15.2123 24.7206 15.7984 25.2977C16.3478 25.8385 16.902 26.0662 17.6751 26.0687C18.407 26.071 19.0511 25.8145 19.5722 25.3132C19.9526 24.9474 20.268 24.3421 20.34 23.8397C20.3706 23.6257 20.3906 20.963 20.3912 17.015Z" fill="#F3F2F2"/>
</svg>
